<?xml version="1.0" encoding="UTF-8" standalone="no"?>
<svg
   xmlns:dc="http://purl.org/dc/elements/1.1/"
   xmlns:cc="http://creativecommons.org/ns#"
   xmlns:rdf="http://www.w3.org/1999/02/22-rdf-syntax-ns#"
   xmlns:svg="http://www.w3.org/2000/svg"
   xmlns="http://www.w3.org/2000/svg"
   viewBox="0 0 4000 4000"
   height="4000"
   width="4000"
   xml:space="preserve"
   id="svg2"
   version="1.1"><metadata
     id="metadata8"><rdf:RDF><cc:Work
         rdf:about=""><dc:format>image/svg+xml</dc:format><dc:type
           rdf:resource="http://purl.org/dc/dcmitype/StillImage" /></cc:Work></rdf:RDF></metadata><defs
     id="defs6"><clipPath
       id="clipPath22"
       clipPathUnits="userSpaceOnUse"><path
         id="path20"
         d="M 0,3000 H 3000 V 0 H 0 Z" /></clipPath></defs><g
     transform="matrix(1.3333333,0,0,-1.3333333,0,4000)"
     id="g10"><g
       transform="translate(677.9292,1112.4683)"
       id="g12"><path
         id="path14"
         style="fill:#000000;fill-opacity:1;fill-rule:nonzero;stroke:none"
         d="M 0,0 H 71.705 L 35.78,98.648 Z M 79.962,-22.743 H -8.402 L -28.247,-77.934 H -56.929 L 23.612,132.98 h 24.336 l 80.686,-210.914 h -28.537 z" /></g><g
       id="g16"><g
         clip-path="url(#clipPath22)"
         id="g18"><g
           transform="translate(856.105,1191.271)"
           id="g24"><path
             id="path26"
             style="fill:#000000;fill-opacity:1;fill-rule:nonzero;stroke:none"
             d="m 0,0 0.869,-19.701 c 11.973,15.066 27.618,22.598 46.934,22.598 33.123,0 49.832,-18.687 50.121,-56.06 V -156.737 H 71.125 v 103.719 c -0.097,11.299 -2.679,19.65 -7.75,25.06 -5.069,5.408 -12.964,8.112 -23.684,8.112 -8.691,0 -16.321,-2.317 -22.887,-6.953 C 10.235,-31.434 5.118,-37.518 1.449,-45.051 V -156.737 H -25.35 L -25.35,0 Z" /></g><g
           transform="translate(1014.7251,1111.1646)"
           id="g28"><path
             id="path30"
             style="fill:#000000;fill-opacity:1;fill-rule:nonzero;stroke:none"
             d="m 0,0 c 0,-17.77 3.669,-31.676 11.009,-41.719 7.338,-10.046 17.478,-15.066 30.42,-15.066 16.997,0 29.406,7.627 37.229,22.888 v 71.995 c -8.017,14.775 -20.33,22.163 -36.939,22.163 -13.134,0 -23.372,-5.07 -30.71,-15.21 C 3.669,34.911 0,19.893 0,0 m -26.799,3.042 c 0,24.046 5.697,43.385 17.093,58.016 11.394,14.63 26.314,21.946 44.762,21.946 18.347,0 32.882,-6.28 43.602,-18.832 v 81.7 h 26.799 V -76.63 H 80.831 l -1.304,16.803 c -10.719,-13.134 -25.64,-19.7 -44.761,-19.7 -18.158,0 -32.955,7.435 -44.399,22.308 -11.444,14.869 -17.166,34.281 -17.166,58.233 z" /></g><g
           transform="translate(1237.5171,1167.2246)"
           id="g32"><path
             id="path34"
             style="fill:#000000;fill-opacity:1;fill-rule:nonzero;stroke:none"
             d="m 0,0 c -4.056,0.674 -8.452,1.014 -13.182,1.014 -17.578,0 -29.504,-7.485 -35.78,-22.453 V -132.69 H -75.761 V 24.046 h 26.074 l 0.435,-18.107 c 8.787,14.001 21.244,21.005 37.374,21.005 5.214,0 9.173,-0.677 11.878,-2.028 z" /></g><g
           transform="translate(1321.1001,1172.1499)"
           id="g36"><path
             id="path38"
             style="fill:#000000;fill-opacity:1;fill-rule:nonzero;stroke:none"
             d="m 0,0 c -10.816,0 -19.896,-3.936 -27.233,-11.806 -7.34,-7.873 -11.878,-18.904 -13.617,-33.1 h 78.514 v 2.028 c -0.775,13.616 -4.443,24.167 -11.01,31.651 C 20.085,-3.745 11.202,0 0,0 m 3.332,-140.513 c -21.247,0 -38.532,6.975 -51.859,20.932 -13.327,13.955 -19.991,32.615 -19.991,55.988 v 4.925 c 0,15.548 2.97,29.428 8.909,41.647 5.939,12.216 14.244,21.776 24.916,28.682 10.669,6.902 22.235,10.358 34.693,10.358 20.375,0 36.215,-6.715 47.514,-20.136 11.299,-13.424 16.948,-32.644 16.948,-57.654 V -66.925 H -41.719 c 0.385,-15.451 4.901,-27.935 13.544,-37.446 8.642,-9.512 19.629,-14.268 32.956,-14.268 9.463,0 17.477,1.931 24.046,5.794 6.567,3.861 12.313,8.981 17.238,15.355 l 16.369,-12.747 C 49.3,-130.423 29.599,-140.513 3.332,-140.513" /></g><path
           id="path40"
           style="fill:#000000;fill-opacity:1;fill-rule:nonzero;stroke:none"
           d="m 1445.679,1034.534 h -26.799 v 156.737 h 26.799 z m -28.972,198.311 c 0,4.346 1.326,8.015 3.983,11.009 2.656,2.992 6.591,4.491 11.807,4.491 5.214,0 9.173,-1.499 11.878,-4.491 2.702,-2.994 4.056,-6.663 4.056,-11.009 0,-4.345 -1.354,-7.967 -4.056,-10.864 -2.705,-2.897 -6.664,-4.346 -11.878,-4.346 -5.216,0 -9.151,1.449 -11.807,4.346 -2.657,2.897 -3.983,6.519 -3.983,10.864" /><g
           transform="translate(1728.2964,1034.5342)"
           id="g42"><path
             id="path44"
             style="fill:#000000;fill-opacity:1;fill-rule:nonzero;stroke:none"
             d="M 0,0 H -27.958 V 97.49 H -134.283 V 0 h -27.813 v 210.914 h 27.813 v -90.682 h 106.325 v 90.682 H 0 Z" /></g><g
           transform="translate(1849.2529,1167.2246)"
           id="g46"><path
             id="path48"
             style="fill:#000000;fill-opacity:1;fill-rule:nonzero;stroke:none"
             d="m 0,0 c -4.056,0.674 -8.451,1.014 -13.182,1.014 -17.577,0 -29.503,-7.485 -35.78,-22.453 V -132.69 H -75.761 V 24.046 h 26.075 l 0.435,-18.107 c 8.787,14.001 21.244,21.005 37.373,21.005 5.214,0 9.173,-0.677 11.878,-2.028 z" /></g><path
           id="path50"
           style="fill:#000000;fill-opacity:1;fill-rule:nonzero;stroke:none"
           d="m 1902.996,1034.534 h -26.799 v 156.737 h 26.799 z m -28.972,198.311 c 0,4.346 1.327,8.015 3.983,11.009 2.656,2.992 6.592,4.491 11.806,4.491 5.215,0 9.174,-1.499 11.879,-4.491 2.703,-2.994 4.056,-6.663 4.056,-11.009 0,-4.345 -1.353,-7.967 -4.056,-10.864 -2.705,-2.897 -6.664,-4.346 -11.879,-4.346 -5.214,0 -9.15,1.449 -11.806,4.346 -2.656,2.897 -3.983,6.519 -3.983,10.864" /><g
           transform="translate(2037.1343,1076.1089)"
           id="g52"><path
             id="path54"
             style="fill:#000000;fill-opacity:1;fill-rule:nonzero;stroke:none"
             d="m 0,0 c 0,7.243 -2.729,12.868 -8.185,16.876 -5.456,4.005 -14.969,7.46 -28.537,10.357 -13.569,2.897 -24.336,6.374 -32.303,10.43 -7.967,4.056 -13.858,8.884 -17.673,14.486 -3.815,5.599 -5.721,12.262 -5.721,19.99 0,12.842 5.432,23.706 16.296,32.593 10.864,8.885 24.746,13.328 41.647,13.328 17.768,0 32.182,-4.588 43.24,-13.762 C 19.821,95.121 25.35,83.388 25.35,69.097 H -1.593 c 0,7.338 -3.115,13.665 -9.344,18.977 -6.229,5.309 -14.076,7.967 -23.539,7.967 -9.755,0 -17.383,-2.125 -22.888,-6.374 -5.505,-4.251 -8.257,-9.802 -8.257,-16.659 0,-6.47 2.558,-11.349 7.678,-14.63 5.118,-3.284 14.364,-6.425 27.74,-9.416 13.375,-2.994 24.215,-6.569 32.521,-10.719 8.305,-4.154 14.461,-9.151 18.469,-14.993 4.007,-5.845 6.012,-12.965 6.012,-21.367 0,-14.004 -5.602,-25.23 -16.804,-33.679 -11.203,-8.453 -25.737,-12.676 -43.602,-12.676 -12.555,0 -23.661,2.222 -33.317,6.664 -9.658,4.44 -17.216,10.647 -22.671,18.614 -5.457,7.967 -8.184,16.587 -8.184,25.857 h 26.799 c 0.482,-8.981 4.079,-16.103 10.792,-21.366 6.711,-5.266 15.572,-7.895 26.581,-7.895 10.14,0 18.275,2.05 24.409,6.157 C -3.066,-12.338 0,-6.859 0,0" /></g><g
           transform="translate(2161.7124,1053.5107)"
           id="g56"><path
             id="path58"
             style="fill:#000000;fill-opacity:1;fill-rule:nonzero;stroke:none"
             d="m 0,0 c 9.561,0 17.913,2.897 25.061,8.691 7.146,5.795 11.105,13.038 11.878,21.729 h 25.35 C 61.805,21.439 58.715,12.893 53.018,4.78 47.319,-3.332 39.714,-9.802 30.203,-14.63 20.69,-19.458 10.623,-21.874 0,-21.874 c -21.343,0 -38.315,7.12 -50.917,21.367 -12.604,14.244 -18.905,33.727 -18.905,58.45 v 4.491 c 0,15.258 2.801,28.827 8.402,40.705 5.6,11.879 13.64,21.099 24.119,27.668 10.478,6.567 22.863,9.851 37.156,9.851 17.576,0 32.182,-5.266 43.82,-15.79 11.637,-10.527 17.841,-24.191 18.614,-40.995 h -25.35 c -0.773,10.14 -4.612,18.469 -11.516,24.988 -6.905,6.519 -15.428,9.778 -25.568,9.778 -13.616,0 -24.168,-4.903 -31.651,-14.703 -7.485,-9.803 -11.227,-23.974 -11.227,-42.516 v -5.07 c 0,-18.059 3.717,-31.966 11.154,-41.719 C -24.433,4.875 -13.811,0 0,0" /></g><g
           transform="translate(2306.4258,1054.9595)"
           id="g60"><path
             id="path62"
             style="fill:#000000;fill-opacity:1;fill-rule:nonzero;stroke:none"
             d="m 0,0 c 8.402,0 16.369,2.173 23.902,6.519 7.533,4.345 12.988,9.995 16.369,16.948 V 55.625 H 19.266 c -32.835,0 -49.251,-9.611 -49.251,-28.826 0,-8.402 2.799,-14.971 8.402,-19.701 C -15.983,2.365 -8.789,0 0,0 m 44.472,-20.425 c -1.546,3.09 -2.802,8.594 -3.766,16.514 -12.458,-12.943 -27.331,-19.411 -44.617,-19.411 -15.452,0 -28.127,4.367 -38.026,13.11 -9.899,8.739 -14.847,19.82 -14.847,33.244 0,16.319 6.204,28.994 18.614,38.026 12.409,9.029 29.864,13.544 52.366,13.544 h 26.075 v 12.313 c 0,9.365 -2.802,16.825 -8.402,22.38 -5.601,5.553 -13.859,8.33 -24.771,8.33 -9.56,0 -17.577,-2.415 -24.046,-7.243 -6.471,-4.831 -9.706,-10.672 -9.706,-17.528 h -26.943 c 0,7.822 2.775,15.377 8.329,22.67 5.552,7.291 13.085,13.059 22.598,17.311 9.511,4.248 19.966,6.374 31.362,6.374 18.058,0 32.206,-4.516 42.443,-13.544 10.236,-9.032 15.548,-21.464 15.935,-37.302 V 16.224 c 0,-14.391 1.833,-25.835 5.504,-34.331 v -2.318 z" /></g><g
           transform="translate(1421.3833,1737.4541)"
           id="g64"><path
             id="path66"
             style="fill:#000000;fill-opacity:1;fill-rule:nonzero;stroke:none"
             d="m 0,0 c -2.573,-4.153 -6.726,-7.12 -12.46,-8.9 5.734,-1.78 9.887,-4.746 12.46,-8.9 2.568,-4.153 3.857,-10.286 3.857,-18.393 v -64.971 c 0,-15.427 7.314,-23.14 21.953,-23.14 h 7.417 v -23.437 H 20.174 c -14.834,0 -26.01,3.708 -33.524,11.125 -7.519,7.417 -11.274,18.347 -11.274,32.782 V -35.6 c 0,9.888 -4.45,14.833 -13.35,14.833 H -48.357 V 2.967 h 10.383 c 8.9,0 13.35,4.942 13.35,14.833 v 68.234 c 0,14.435 3.755,25.366 11.274,32.782 7.514,7.417 18.69,11.125 33.524,11.125 H 33.227 V 106.505 H 25.81 c -14.639,0 -21.953,-7.714 -21.953,-23.14 V 18.394 C 3.857,10.282 2.568,4.154 0,0" /></g><g
           transform="translate(1626.9741,1740.4209)"
           id="g68"><path
             id="path70"
             style="fill:#000000;fill-opacity:1;fill-rule:nonzero;stroke:none"
             d="m 0,0 v -23.733 h -10.087 c -8.705,0 -13.053,-4.946 -13.053,-14.834 v -68.234 c 0,-14.435 -3.811,-25.365 -11.423,-32.782 -7.615,-7.417 -18.837,-11.125 -33.671,-11.125 h -13.054 v 23.437 h 7.121 c 15.028,0 22.546,7.713 22.546,23.14 v 64.971 c 0,8.306 1.234,14.486 3.708,18.541 2.472,4.052 6.574,6.973 12.313,8.752 -5.739,1.781 -9.841,4.697 -12.313,8.752 -2.474,4.052 -3.708,10.236 -3.708,18.542 v 64.971 c 0,15.426 -7.518,23.14 -22.546,23.14 h -7.121 v 23.437 h 13.054 c 14.834,0 26.056,-3.708 33.671,-11.125 7.612,-7.417 11.423,-18.348 11.423,-32.783 V 14.833 C -23.14,4.942 -18.792,0 -10.087,0 Z" /></g><g
           transform="translate(1500.0005,1941.6626)"
           id="g72"><path
             id="path74"
             style="fill:#000000;fill-opacity:1;fill-rule:nonzero;stroke:none"
             d="m 0,0 c -117.508,0 -213.108,-95.6 -213.108,-213.108 0,-117.508 95.6,-213.108 213.108,-213.108 117.507,0 213.107,95.6 213.107,213.108 C 213.107,-95.6 117.507,0 0,0 m 0,-452.917 c -132.231,0 -239.809,107.578 -239.809,239.809 C -239.809,-80.877 -132.231,26.7 0,26.7 132.23,26.7 239.808,-80.877 239.808,-213.108 239.808,-345.339 132.23,-452.917 0,-452.917" /></g></g></g></g></svg>